<svg width="154" height="154" viewBox="0 0 154 154" fill="none" xmlns="http://www.w3.org/2000/svg">
<style>
    @media (prefers-color-scheme: dark) {
        svg path {
            fill: white;
        }
    }
    @media (prefers-color-scheme: light) {
        svg path {
            fill: black;
        }
    }
</style>
<path d="M11.6807 45.8487C7.88399 39.9969..." fill="black"/>
<svg width="154" height="154" viewBox="0 0 154 154" fill="none" xmlns="http://www.w3.org/2000/svg">
<path d="M11.6807 45.8487C7.88399 39.9969 5.94232 32.8664 7.30448 25.6394C7.95114 22.1924 9.27198 18.9071 11.1911 15.9717C13.1103 13.0364 15.5901 10.5088 18.4883 8.53398C21.3865 6.55909 24.646 5.17581 28.0799 4.46343C31.5139 3.75105 35.0547 3.72361 38.4992 4.38267C41.9438 5.04173 45.2244 6.37433 48.1529 8.30401C51.0812 10.2337 53.6 12.7226 55.5644 15.6279C57.5288 18.5331 58.9004 21.7976 59.6004 25.234C60.3005 28.6706 60.3152 32.2114 59.6437 35.6536C57.9106 44.9005 52.8835 51.1808 43.0717 55.6238C38.3275 57.7732 20.4861 59.4189 11.6807 45.8487ZM19.8445 26.8061C20.4784 28.8763 21.6284 30.7514 23.1863 32.2549C24.7442 33.7585 26.6589 34.8413 28.7503 35.4013C30.8417 35.9614 33.0412 35.9805 35.142 35.4567C37.2429 34.933 39.1761 33.8836 40.7598 32.4073C49.8212 23.9553 42.5229 8.81515 30.1515 10.5414C28.3457 10.8129 26.6193 11.4695 25.0894 12.4665C23.5596 13.4636 22.2619 14.7779 21.2844 16.3204C20.3069 17.8629 19.6725 19.5975 19.424 21.4067C19.1756 23.2158 19.319 25.0572 19.8445 26.8061ZM24.039 54.1612C23.9754 54.3781 24.1701 54.4241 24.3717 54.4908C37.2551 58.7605 49.0186 54.0002 55.1341 44.3179C55.2928 44.068 55.3051 44.0059 55.0759 43.8212C46.9819 35.9234 26.8346 41.3598 24.039 54.1612Z" fill="black"/>
<path d="M35.9349 17.898C35.9196 21.0071 32.0769 22.344 31.9182 24.9863C31.8469 26.1653 33.2665 26.9502 32.3835 27.6692C31.6729 28.2457 30.809 26.7494 30.5675 25.3979C30.5532 24.9543 30.5895 24.5104 30.6756 24.0749C31.2206 21.4157 34.7253 20.1731 34.4233 17.6665C34.1213 15.1599 31.3279 15.6053 29.3334 17.5699C28.5975 18.2943 28.7615 18.8278 28.5438 19.241C28.2564 19.7837 27.522 19.415 27.4592 18.8087C27.1786 16.1089 32.6257 12.2984 35.3447 16.0169C35.7431 16.5619 35.9506 17.2231 35.9349 17.898Z" fill="black"/>
<path d="M32.9992 31.4706C32.8593 31.3916 32.7397 31.2811 32.6498 31.1479C32.56 31.0146 32.5024 30.8623 32.4814 30.703C32.4606 30.5437 32.477 30.3817 32.5295 30.2298C32.5819 30.0779 32.669 29.9403 32.7838 29.8279C32.883 29.7284 33.0031 29.6523 33.1355 29.6053C33.2678 29.5583 33.409 29.5415 33.5487 29.5562C33.6884 29.5709 33.823 29.6168 33.9427 29.6903C34.0624 29.7638 34.1641 29.8632 34.2403 29.9812C34.6795 30.7385 33.9007 31.929 32.9992 31.4706Z" fill="black"/>
<path d="M15.7463 137.324C26.6191 134.347 53.2023 131.067 64.397 129.744C91.2799 126.567 119.271 123.907 146.111 122.664C146.192 122.663 146.271 122.694 146.331 122.75C146.391 122.805 146.426 122.882 146.431 122.963C146.435 123.045 146.408 123.125 146.355 123.187C146.302 123.249 146.227 123.288 146.146 123.296C112.719 125.519 35.5739 133.676 16.0461 138.616C15.6428 138.717 15.3485 137.433 15.7463 137.324Z" fill="black"/>
<path d="M109.233 88.0383C109.064 87.655 109.83 88.0873 110.113 87.2909C110.789 85.3914 110.797 84.7957 109.919 84.1381C108.873 83.4635 107.747 82.9223 106.566 82.5283C106.271 82.4378 106.909 82.145 107.634 81.262C107.818 81.0389 107.761 81.1247 109.513 81.9994C111.651 83.0672 111.784 82.9491 112.043 83.636C112.378 84.4293 112.997 85.0694 113.779 85.4312C115.365 86.2399 116.907 87.0095 118.173 85.665C118.331 85.4971 118.32 85.5163 119.205 85.9831C123.254 88.1195 123.143 87.7025 123.239 88.1502C123.35 88.6247 123.572 89.0662 123.885 89.4387C124.199 89.8121 124.595 90.1056 125.043 90.2965C126.343 90.9933 126.998 91.4831 128.312 91.0339C132.145 89.7231 134.421 84.3082 132.673 82.585C131.176 81.1102 130.363 80.0922 128.294 80.5468C127.974 80.6173 128.231 80.6196 124.192 77.7925C123.772 77.499 123.766 77.4254 123.831 77.1862C123.897 76.9386 123.903 76.6788 123.849 76.4281C123.795 76.1776 123.681 75.9437 123.518 75.7459C121.263 72.7679 119.225 72.8752 118.497 72.9204C118.427 72.9285 118.356 72.9204 118.289 72.8965C118.223 72.8728 118.163 72.834 118.114 72.7832C114.818 68.9865 91.5742 52.8453 85.9278 49.0401C85.3667 48.6614 85.7178 48.5334 85.5691 48.0106C85.0325 46.1195 82.1625 43.5539 80.4332 42.8878C73.5925 40.2531 65.2586 49.0593 65.9776 56.3078C66.3731 60.2938 68.3999 61.7993 72.051 63.2466C72.6976 63.4976 73.3967 63.5829 74.0846 63.4949C74.8035 63.2949 75.4937 63.0033 76.1382 62.6272C76.8151 62.1788 76.4571 63.3209 97.8316 75.68C98.1735 75.8778 98.0324 75.8609 98.0202 76.2488C97.9558 77.7619 98.29 79.2643 98.9898 80.6073C99.1516 80.9139 98.9132 80.7606 97.909 80.7307C95.259 80.6464 95.0268 81.3961 95.0176 84.0054C95.0176 84.5504 95.3319 84.7957 95.8769 85.1008C96.6756 85.5493 96.7063 85.5707 96.6603 85.7279C96.5744 86.0207 74.8688 147.112 74.8351 148.068C74.8098 148.794 75.5794 149.348 76.2915 149.476C76.4563 149.506 77.1163 147.874 78.2999 144.899C81.094 137.875 88.2535 120.724 89.5314 117.468C100.298 90.0252 98.743 93.7475 100.281 89.9646C100.503 89.4203 100.497 89.8795 100.625 92.0258C100.685 93.0369 104.185 142.867 104.387 145.242C104.57 147.371 104.658 147.366 104.949 147.388C105.274 147.47 105.614 147.472 105.94 147.394C106.267 147.316 106.569 147.159 106.822 146.939C107.22 146.456 107.09 146.285 106.912 141.267C106.811 138.417 105.128 91.4877 105.142 91.4862C105.142 89.4932 122.908 133.74 128.876 147.024C129.118 147.561 129.445 147.306 130.283 146.895C130.588 146.683 130.807 146.37 130.901 146.012C130.996 145.653 130.96 145.273 130.799 144.938C128.338 138.32 109.233 88.0383 109.233 88.0383ZM132.349 83.0557C133.098 83.8613 132.869 86 131.429 88.0099C130.418 89.4219 128.553 91.1022 126.967 90.4759C126.048 90.1133 125.677 89.0961 126.282 87.1797C127.152 84.4194 130.82 81.4076 132.349 83.0549L132.349 83.0557ZM129.476 81.0626C130.005 81.137 130.495 81.3884 130.864 81.7763C130.93 81.8361 131.148 82.0584 130.742 82.0599C128.45 82.3275 125.533 85.7647 125.376 88.476C125.315 89.4955 125.529 89.6449 125.219 89.5353C123.064 88.7803 123.669 85.6773 125.393 83.4336C125.979 82.6862 126.685 82.0415 127.483 81.5264C128.08 81.1623 128.778 80.9998 129.475 81.0626H129.476ZM127.329 80.6893C127.762 80.9707 126.922 80.7054 125.3 82.5291C122.211 85.9992 123.825 87.6366 122.694 87.1414C122.227 86.9367 121.336 86.4293 119.384 85.4159C116.241 83.7839 116.272 83.8008 116.318 83.4489C116.579 82.0377 117.159 80.7047 118.014 79.5518C118.746 78.4901 119.673 77.5764 120.745 76.8597C121.04 76.6535 121.218 76.5064 121.599 76.7707C122.17 77.1701 123.552 78.2371 127.324 80.6893H127.329ZM120.85 74.0273C122.039 74.8169 123.089 75.9437 122.631 75.7306C121.424 75.168 119.98 76.4351 118.894 77.4476C117.349 78.8856 116.238 80.7284 115.688 82.7659C115.553 83.1783 115.501 83.6137 115.536 84.0461C115.57 84.4784 115.69 84.9 115.888 85.2856C115.973 85.4167 116.166 85.7455 115.735 85.6144C114.829 85.3461 113.984 84.9061 113.244 84.3182C112.498 83.6981 112.336 82.3734 112.348 81.4375C112.402 76.7769 117.867 72.0481 120.846 74.0273H120.85ZM73.3112 62.5758C73.2246 62.7023 73.072 62.6793 72.9279 62.6249C70.4052 61.6728 67.3428 60.4947 66.8722 56.8129C66.1823 51.398 70.0648 45.4588 75.5342 43.7049C77.0075 43.1361 78.6333 43.0952 80.1335 43.5892C81.6574 44.3494 83.0004 45.428 84.0712 46.752C83.4296 46.5069 82.7359 46.4278 82.0552 46.522C76.1466 47.2364 69.5413 58.8696 73.0398 62.26C73.1625 62.3788 73.3441 62.5268 73.3112 62.5758ZM73.2238 59.5464C73.1382 59.5102 73.0688 59.4441 73.0283 59.3605C72.9878 59.2769 72.9791 59.1814 73.0038 59.0919C74.2356 51.8756 80.2623 47.3591 81.8314 47.4158C82.1158 47.3966 82.0935 47.3729 84.4882 49.0493C94.192 55.8402 108.077 65.1277 117.575 73.0186C117.937 73.3198 115.441 73.3543 113.069 76.8666C110.889 80.0953 111.981 82.5582 111.488 82.2983C92.7363 72.4298 75.0857 60.5046 73.2238 59.5464ZM96.182 81.5463C96.6419 81.0496 98.9691 81.4697 99.2482 81.5004C99.3746 81.5065 99.4981 81.5417 99.6084 81.6023C99.7196 81.6636 99.8146 81.7495 99.8875 81.853C100.545 82.6463 101.45 83.196 102.458 83.4129C103.465 83.6298 104.516 83.5018 105.442 83.0495C105.596 82.943 105.785 82.897 105.97 82.9215C107.06 83.2565 108.108 83.7141 109.094 84.286C112.165 86.2131 103.935 85.55 98.2808 83.219C97.6905 82.9729 95.7458 82.0124 96.182 81.544V81.5463ZM107.732 87.2755C101.179 87.2962 95.6094 84.7528 95.6454 84.0376C95.6967 83.0212 95.6745 82.3229 95.9827 82.6095C98.2463 84.713 106.986 86.476 109.661 85.8988C109.802 85.8681 109.83 85.9126 109.814 86.0146C109.755 86.3495 109.672 86.6799 109.567 87.0034C109.374 87.3668 108.979 87.2694 107.732 87.2732V87.2755Z" fill="black"/>
<path d="M127.284 89.0524C127.762 90.2022 129.781 89.0478 130.881 87.2273C131.382 86.3994 131.874 85.5025 131.714 84.6762C131.522 83.6797 130.378 83.7916 129.631 84.3535C128.252 85.3891 126.814 87.5868 127.284 89.0524Z" fill="black"/>
<path d="M35.4045 86.3264C36.2232 86.3264 36.1872 86.3724 36.1711 86.0965C36.1711 86.0965 36.043 84.8148 35.9273 83.2426C35.8913 82.7535 36.9422 82.2775 37.0449 85.1689C37.0909 86.4721 37.1614 86.3954 37.3883 86.4008C40.2874 86.4621 40.325 86.318 40.4285 86.5663C40.5228 86.7963 39.2679 87.1482 39.0265 87.1934C37.2703 87.5199 37.2634 87.1934 37.2634 87.6809C37.2849 90.9334 37.2757 90.2795 37.3577 90.948C37.3738 91.076 37.2335 91.0729 37.1837 91.0346C36.6708 90.6413 36.4171 88.784 36.3972 88.3378C36.3466 87.3229 36.2707 87.3843 36.0699 87.3689C34.6311 87.2585 34.2815 87.2884 34.2585 86.9604C34.2102 86.2858 34.7246 86.3264 35.4045 86.3264Z" fill="black"/>
<path d="M91.7627 17.9128C91.7627 19.5225 91.693 19.4919 91.9704 19.4926C93.0735 19.4926 93.3502 19.5286 93.7619 19.5524C94.1735 19.5762 94.1359 19.8675 93.9374 19.9893C93.3886 20.3205 92.7585 20.493 92.1176 20.4876C91.6347 20.5344 91.8608 20.3711 91.6171 22.6163C91.4783 23.9003 91.3595 24.4116 91.1111 24.233C90.655 23.9049 90.7371 21.7263 90.6642 20.713C90.6474 20.4692 90.6995 20.4462 89.4746 20.4485C89.2369 20.4485 88.9157 20.4769 88.846 20.1871C88.7394 19.744 88.8146 19.5271 89.6892 19.4972C90.6987 19.4604 90.7348 19.5317 90.7447 19.3071C90.7647 18.3377 90.8375 17.3701 90.9632 16.4088C90.9632 16.3035 91.0054 16.2024 91.0797 16.128C91.1541 16.0536 91.2553 16.0117 91.3603 16.0117C91.4653 16.0117 91.5665 16.0536 91.6408 16.128C91.7152 16.2024 91.7573 16.3035 91.7573 16.4088C91.7849 16.9097 91.7865 17.4117 91.7627 17.9128Z" fill="black"/>
<path d="M132.018 44.4828C132.221 44.5457 131.817 44.9137 131.482 45.0609C131.106 45.1776 130.718 45.252 130.326 45.2824C130.236 45.2962 130.065 45.2824 130.037 45.4212C129.932 45.944 129.887 46.6952 129.682 47.9508C129.528 48.889 129.367 48.9557 129.222 48.978C129.109 48.9948 128.915 48.8484 128.929 47.9937C128.947 47.0233 129 45.7094 129.027 45.5545C129.062 45.3598 128.684 45.4058 127.696 45.5116C127.597 45.5229 127.499 45.4987 127.416 45.4433C127.334 45.388 127.273 45.305 127.246 45.2095C127.22 45.1139 127.228 45.0119 127.269 44.9218C127.311 44.8316 127.383 44.7592 127.473 44.7174C127.917 44.4958 128.399 44.3583 128.893 44.3119C128.981 44.2912 129.083 44.3518 129.133 44.2107C129.31 43.714 129.263 42.4684 129.426 41.8345C129.599 41.1576 130.09 41.3568 130.103 41.8743C130.188 45.5031 129.66 43.75 132.018 44.4828Z" fill="black"/>
</svg>

</svg>
